# xmcd CD database file
#
# Track frame offsets:
#	150
#	29214
#	59809
#	105032
#	132861
#	159281
#	185854
#	206139
#	234867
#	271981
#	302858
#
# Disc length: 4360 seconds
#
# Revision: 0
# Processed by: cddbd v1.5.2PL0 Copyright (c) Steve Scherf et al.
# Submitted via: CDex 1.70beta2
#
DISCID=9c11060b
DTITLE=Various Artist - Jazz Roads CD185 - Swing - Lester Young Vol.13 (1956-1958)
DYEAR=2006
DGENRE=Jazz
TTITLE0=Pres And Teddy - Love Is Here To Stay
TTITLE1=Pres And Teddy - Love Me Or Leave Me
TTITLE2=Lester Young Sextet - St. Tropez
TTITLE3=Lester Young Sextet - Flic
TTITLE4=Lester Young Sextet - Love Is Here To Stay
TTITLE5=Count Basie All Stars  - Dickie's Dream
TTITLE6=Count Basie All Stars  - I Left My Baby
TTITLE7=Billie Holiday With Mal Waldron All Stars - Fine And Mellow
TTITLE8=Lester Young Sextet - Waldorff Blues
TTITLE9=Lester Young Sextet - Sunday
TTITLE10=Lester Young Sextet - You're Getting To Be A Habit With Me
EXTD=YEAR: 2006
EXTT0=
EXTT1=
EXTT2=
EXTT3=
EXTT4=
EXTT5=
EXTT6=
EXTT7=
EXTT8=
EXTT9=
EXTT10=
PLAYORDER=
